<?xml version="1.0" encoding="UTF-8" standalone="no"?>
<!-- Created with Inkscape (http://www.inkscape.org/) -->

<svg
   xmlns:dc="http://purl.org/dc/elements/1.1/"
   xmlns:cc="http://creativecommons.org/ns#"
   xmlns:rdf="http://www.w3.org/1999/02/22-rdf-syntax-ns#"
   xmlns:svg="http://www.w3.org/2000/svg"
   xmlns="http://www.w3.org/2000/svg"
   xmlns:sodipodi="http://sodipodi.sourceforge.net/DTD/sodipodi-0.dtd"
   xmlns:inkscape="http://www.inkscape.org/namespaces/inkscape"
   width="210mm"
   height="297mm"
   viewBox="0 0 210 297"
   version="1.1"
   id="svg8"
   inkscape:version="0.92.4 (5da689c313, 2019-01-14)"
   sodipodi:docname="Activity2.svg">
  <defs
     id="defs2" />
  <sodipodi:namedview
     id="base"
     pagecolor="#ffffff"
     bordercolor="#666666"
     borderopacity="1.0"
     inkscape:pageopacity="0.0"
     inkscape:pageshadow="2"
     inkscape:zoom="1.9561737"
     inkscape:cx="293.25754"
     inkscape:cy="784.6846"
     inkscape:document-units="mm"
     inkscape:current-layer="layer1"
     showgrid="true"
     inkscape:snap-nodes="true"
     inkscape:snap-bbox="true"
     inkscape:snap-center="false"
     inkscape:window-width="1920"
     inkscape:window-height="991"
     inkscape:window-x="-9"
     inkscape:window-y="-9"
     inkscape:window-maximized="1">
    <inkscape:grid
       type="xygrid"
       id="grid22" />
  </sodipodi:namedview>
  <metadata
     id="metadata5">
    <rdf:RDF>
      <cc:Work
         rdf:about="">
        <dc:format>image/svg+xml</dc:format>
        <dc:type
           rdf:resource="http://purl.org/dc/dcmitype/StillImage" />
        <dc:title></dc:title>
      </cc:Work>
    </rdf:RDF>
  </metadata>
  <g
     inkscape:label="Layer 1"
     inkscape:groupmode="layer"
     id="layer1">
    <path
       style="fill:none;stroke-width:0.37795276;stroke-miterlimit:4;stroke-dasharray:none;stroke:#070000;stroke-opacity:1;stroke-linecap:square;stroke-linejoin:round"
       d="M 255 307.51953 L 255 372.51953 L 330 372.51953 L 330 307.51953 L 255 307.51953 z M 285 312.51953 L 300 312.51953 L 300 317.51953 L 285 317.51953 L 285 312.51953 z M 260 332.51953 L 265 332.51953 L 265 347.51953 L 260 347.51953 L 260 332.51953 z M 320 332.51953 L 325 332.51953 L 325 347.51953 L 320 347.51953 L 320 332.51953 z M 285 362.51953 L 300 362.51953 L 300 367.51953 L 285 367.51953 L 285 362.51953 z "
       id="rect3735"
       transform="scale(0.26458333)" />
    <path
       style="fill:none;stroke-width:0.37795276;stroke-miterlimit:4;stroke-dasharray:none;stroke:#000000;stroke-opacity:1;stroke-linecap:square;stroke-linejoin:round"
       d="M 255 242.51953 L 255 292.01953 L 285 292.01953 L 285 297.51953 L 300 297.51953 L 300 292.01953 L 330 292.01953 L 330 242.51953 L 325 242.51953 L 325 262.51953 L 320 262.51953 L 320 242.51953 L 265 242.51953 L 265 262.51953 L 260 262.51953 L 260 242.51953 L 255 242.51953 z "
       transform="scale(0.26458333)"
       id="rect3737" />
    <path
       style="fill:none;stroke-width:0.1;stroke-miterlimit:4;stroke-dasharray:none;stroke:#000000;stroke-opacity:1;stroke-linecap:square;stroke-linejoin:round"
       d="m 75.406249,117.08329 v -1.45521 h -7.9375 v -13.09687 h 1.322917 v 5.29166 h 1.322916 v -5.29166 h 14.552084 v 5.29166 h 1.322916 v -5.29166 h 1.322917 v 13.09687 h -7.9375 v 1.45521 z"
       id="rect3739"
       inkscape:connector-curvature="0" />
    <path
       style="fill:none;stroke:#000000;stroke-width:0.1;stroke-linecap:square;stroke-linejoin:round;stroke-miterlimit:4;stroke-dasharray:none;stroke-opacity:1"
       d="M 64.161459,82.6875 A 1.3229165,1.3229165 0 0 0 62.838542,81.364584 1.3229165,1.3229165 0 0 0 61.515625,82.6875 H 46.963542 v 13.229167 h 1.322917 V 90.625 h 1.322916 v 5.291667 h 3.96875 v 1.322916 h 3.96875 v -1.322916 h 3.96875 V 90.625 h 1.322917 v 5.291667 h 1.322917 z m -0.661459,0 A 0.6614583,0.6614583 0 0 1 62.838542,83.348959 0.6614583,0.6614583 0 0 1 62.177084,82.6875 0.6614583,0.6614583 0 0 1 62.838542,82.026042 0.6614583,0.6614583 0 0 1 63.5,82.6875 Z"
       id="rect3743"
       inkscape:connector-curvature="0" />
    <path
       style="fill:none;stroke-width:0.1;stroke-miterlimit:4;stroke-dasharray:none;stroke:#000000;stroke-opacity:1;stroke-linecap:square;stroke-linejoin:round"
       d="m 67.46875,44.322917 v 1.322916 h 1.322917 V 46.96875 H 67.46875 V 61.520833 H 87.3125 V 46.96875 H 85.989583 V 45.645833 H 87.3125 v -1.322916 z"
       id="rect3787"
       inkscape:connector-curvature="0" />
    <path
       inkscape:connector-curvature="0"
       id="path937"
       d="m 91.281243,82.6875 a 1.3229165,1.3229165 0 0 1 1.32292,-1.322916 1.3229165,1.3229165 0 0 1 1.32292,1.322916 h 14.552077 v 13.229167 h -1.32292 V 90.625 h -1.32291 v 5.291667 h -3.96875 v 1.322916 h -3.968747 v -1.322916 h -3.96875 V 90.625 h -1.32292 v 5.291667 h -1.32292 z m 0.66146,0 a 0.6614583,0.6614583 0 0 0 0.66146,0.661459 0.6614583,0.6614583 0 0 0 0.66146,-0.661459 0.6614583,0.6614583 0 0 0 -0.66146,-0.661458 0.6614583,0.6614583 0 0 0 -0.66146,0.661458 z"
       style="fill:none;stroke:#000000;stroke-width:0.1;stroke-linecap:square;stroke-linejoin:round;stroke-miterlimit:4;stroke-dasharray:none;stroke-opacity:1" />
  </g>
</svg>
